<svg xmlns="http://www.w3.org/2000/svg" viewBox="0 0 1400 440"><defs><marker id="a" markerWidth="10" markerHeight="10" refX="8" refY="3" orient="auto"><path d="M0,0 L0,6 L9,3 z" fill="#44546a"/></marker></defs><rect width="1400" height="440" fill="#f8fbfd"/><text x="55" y="48" font-family="Segoe UI" font-size="26" font-weight="700" fill="#103a5c">ExpressRoute Microsoft peering QoS: classification occurs before the Microsoft edge</text><rect x="70" y="145" width="230" height="110" rx="12" fill="#0078d4"/><text x="185" y="185" text-anchor="middle" font-family="Segoe UI" font-size="20" fill="white">Enterprise WAN</text><text x="185" y="215" text-anchor="middle" font-family="Segoe UI" font-size="16" fill="white">Classify + mark DSCP</text><rect x="360" y="120" width="330" height="160" rx="12" fill="#fff4ce" stroke="#d39e00" stroke-width="2"/><text x="525" y="155" text-anchor="middle" font-family="Segoe UI" font-size="20" font-weight="700" fill="#5b4a00">CE QoS queues</text><text x="525" y="190" text-anchor="middle" font-family="Consolas" font-size="16" fill="#5b4a00">EF 46 • AF41 34 • AF21 18</text><text x="525" y="220" text-anchor="middle" font-family="Consolas" font-size="16" fill="#5b4a00">AF11 10 • CS0 0</text><text x="525" y="250" text-anchor="middle" font-family="Segoe UI" font-size="15" fill="#5b4a00">Unsupported DSCP → rewrite to 0</text><rect x="750" y="145" width="250" height="110" rx="12" fill="#50e6ff" stroke="#0078d4" stroke-width="2"/><text x="875" y="188" text-anchor="middle" font-family="Segoe UI" font-size="20" font-weight="700" fill="#073b66">ExpressRoute</text><text x="875" y="218" text-anchor="middle" font-family="Segoe UI" font-size="16" fill="#073b66">Microsoft peering</text><rect x="1060" y="145" width="260" height="110" rx="12" fill="#dff6dd" stroke="#107c10" stroke-width="2"/><text x="1190" y="188" text-anchor="middle" font-family="Segoe UI" font-size="20" font-weight="700" fill="#0b5a23">Microsoft services</text><text x="1190" y="218" text-anchor="middle" font-family="Segoe UI" font-size="16" fill="#0b5a23">Teams / Microsoft 365</text><line x1="300" y1="200" x2="350" y2="200" stroke="#44546a" stroke-width="4" marker-end="url(#a)"/><line x1="690" y1="200" x2="740" y2="200" stroke="#44546a" stroke-width="4" marker-end="url(#a)"/><line x1="1000" y1="200" x2="1050" y2="200" stroke="#44546a" stroke-width="4" marker-end="url(#a)"/><rect x="360" y="325" width="640" height="58" rx="8" fill="#fff2f2" stroke="#a4262c"/><text x="680" y="360" text-anchor="middle" font-family="Segoe UI" font-size="16" fill="#8a1c1c">QoS applies to Microsoft peering. Private-peering DSCP is preserved but not used by Microsoft for prioritization.</text></svg>