<svg xmlns="http://www.w3.org/2000/svg" width="1320" height="430" viewBox="0 0 1320 430">
<defs><marker id="a" markerWidth="10" markerHeight="10" refX="9" refY="3" orient="auto"><path d="M0,0 L0,6 L9,3 z" fill="#334"/></marker></defs>
<rect width="1320" height="430" fill="#f7fbff"/><text x="660" y="65" text-anchor="middle" font-family="Segoe UI,Arial" font-size="28" font-weight="700" fill="#12344d">Point-to-Site custom routes and forced tunneling: controlling what remote clients send into Azure</text>
<text x="660" y="105" text-anchor="middle" font-family="Segoe UI,Arial" font-size="16" fill="#526577">Azure architecture and traffic/control relationship</text>
<g><rect x="60" y="180" rx="18" ry="18" width="240" height="120" fill="#0078D4" stroke="#234" stroke-width="2"/><text x="180.0" y="235" text-anchor="middle" font-family="Segoe UI,Arial" font-size="21" font-weight="700" fill="white">Remote Client</text></g><line x1="310" y1="240" x2="352" y2="240" stroke="#334" stroke-width="5" marker-end="url(#a)"/><g><rect x="370" y="180" rx="18" ry="18" width="240" height="120" fill="#8764B8" stroke="#234" stroke-width="2"/><text x="490.0" y="235" text-anchor="middle" font-family="Segoe UI,Arial" font-size="21" font-weight="700" fill="white">VPN Gateway</text></g><line x1="620" y1="240" x2="662" y2="240" stroke="#334" stroke-width="5" marker-end="url(#a)"/><g><rect x="680" y="180" rx="18" ry="18" width="240" height="120" fill="#107C10" stroke="#234" stroke-width="2"/><text x="800.0" y="235" text-anchor="middle" font-family="Segoe UI,Arial" font-size="21" font-weight="700" fill="white">Custom Routes</text></g><line x1="930" y1="240" x2="972" y2="240" stroke="#334" stroke-width="5" marker-end="url(#a)"/><g><rect x="990" y="180" rx="18" ry="18" width="240" height="120" fill="#D83B01" stroke="#234" stroke-width="2"/><text x="1110.0" y="235" text-anchor="middle" font-family="Segoe UI,Arial" font-size="21" font-weight="700" fill="white">Azure / Hybrid Destinations</text></g>
<text x="660" y="370" text-anchor="middle" font-family="Segoe UI,Arial" font-size="15" fill="#526577">Editable Azure-stencil source: draw.io · vector SVG export</text>
</svg>