<svg xmlns="http://www.w3.org/2000/svg" width="1200" height="520"><defs><marker id="m" markerWidth="10" markerHeight="10" refX="9" refY="3" orient="auto"><path d="M0 0L0 6L9 3z" fill="#0078D4"/></marker></defs><rect width="1200" height="520" fill="#f7fbff"/><text x="600" y="42" text-anchor="middle" font-family="Segoe UI" font-size="27" font-weight="700" fill="#073b66">Azure Firewall Premium — TLS Inspection</text><rect x="70" y="225" rx="18" width="180" height="90" fill="#d5e8d4" stroke="#82b366" stroke-width="3"/><text x="160" y="278" text-anchor="middle" font-family="Segoe UI" font-size="18" font-weight="700">Client Workload</text><rect x="390" y="185" rx="18" width="260" height="170" fill="#dae8fc" stroke="#0078D4" stroke-width="4"/><text x="520" y="224" text-anchor="middle" font-family="Segoe UI" font-size="18" font-weight="700">Azure Firewall Premium</text><text x="520" y="253" text-anchor="middle" font-family="Segoe UI" font-size="14">Decrypt → inspect → re-encrypt</text><text x="520" y="279" text-anchor="middle" font-family="Segoe UI" font-size="14">IDPS / URL filtering / web categories</text><rect x="420" y="65" rx="14" width="200" height="75" fill="#e1d5e7" stroke="#9673a6" stroke-width="3"/><text x="520" y="96" text-anchor="middle" font-family="Segoe UI" font-size="17" font-weight="700">Key Vault</text><text x="520" y="120" text-anchor="middle" font-family="Segoe UI" font-size="13">Intermediate CA certificate</text><rect x="830" y="225" rx="18" width="230" height="90" fill="#fff2cc" stroke="#d6b656" stroke-width="3"/><text x="945" y="262" text-anchor="middle" font-family="Segoe UI" font-size="18" font-weight="700">TLS Destination</text><text x="945" y="287" text-anchor="middle" font-family="Segoe UI" font-size="14">Internet / private server</text><line x1="250" y1="270" x2="390" y2="270" stroke="#0078D4" stroke-width="5" marker-end="url(#m)"/><line x1="650" y1="270" x2="830" y2="270" stroke="#43A047" stroke-width="5" marker-end="url(#m)"/><line x1="520" y1="140" x2="520" y2="185" stroke="#F57C00" stroke-width="3" stroke-dasharray="8 5"/><text x="320" y="248" text-anchor="middle" font-family="Segoe UI" font-size="13">TLS session 1</text><text x="740" y="248" text-anchor="middle" font-family="Segoe UI" font-size="13">TLS session 2</text><text x="600" y="445" text-anchor="middle" font-family="Segoe UI" font-size="16" fill="#536779">Clients must trust the enterprise CA used by Firewall Premium, otherwise interception appears as a certificate trust failure.</text></svg>